<?xml version="1.0" encoding="utf-8"?>
<!-- Generator: Adobe Illustrator 25.2.3, SVG Export Plug-In . SVG Version: 6.00 Build 0)  -->
<svg version="1.1" id="Слой_1" xmlns="http://www.w3.org/2000/svg" xmlns:xlink="http://www.w3.org/1999/xlink" x="0px" y="0px"
	 viewBox="0 0 248.9 96.2" style="enable-background:new 0 0 248.9 96.2;" xml:space="preserve">
<style type="text/css">
	.st0{fill:#F28E00;stroke:#F28E00;stroke-width:0.5;stroke-miterlimit:10;}
</style>
<g>
	<path d="M91.7,27.5l-0.9,4.9h-9.3l-0.7,3.5h7.8l-0.8,4.9H80l-1.5,8.3h-5.6l3.8-21.7C76.7,27.5,91.7,27.5,91.7,27.5z"/>
	<path d="M90.4,49.2l2.9-16.7h5.4l-2.9,16.7H90.4z M94.9,25.9c0.7-0.6,1.5-0.9,2.4-0.9c0.7,0,1.3,0.2,1.8,0.7s0.7,1,0.7,1.7
		c0,0.9-0.3,1.6-1,2.2c-0.7,0.6-1.5,0.9-2.4,0.9c-0.8,0-1.4-0.2-1.8-0.6s-0.7-1-0.7-1.6C94,27.3,94.3,26.6,94.9,25.9z"/>
	<path d="M104.7,49.2h-5.4l2.4-13.5l0.1-3.2h4.4l0.1,2.3c1.1-1.9,2.5-2.8,4.3-2.8c1.1,0,1.9,0.2,2.6,0.7l-1.6,4.5
		c-0.7-0.4-1.5-0.6-2.2-0.6s-1.3,0.2-1.8,0.6s-0.8,1-1,1.8L104.7,49.2z"/>
	<path d="M113.1,44c0.6,0.4,1.4,0.8,2.3,1.2s1.7,0.5,2.4,0.5c1.2,0,1.8-0.4,1.8-1.3c0-0.1,0-0.2-0.1-0.3c0-0.1-0.1-0.2-0.2-0.3
		s-0.2-0.2-0.2-0.2s-0.2-0.1-0.3-0.2c-0.1-0.1-0.2-0.1-0.3-0.2c-0.1,0-0.2-0.1-0.4-0.2c-0.2-0.1-0.3-0.1-0.4-0.2
		c-0.1,0-0.2-0.1-0.4-0.2s-0.3-0.1-0.4-0.2c-0.5-0.2-1-0.4-1.4-0.6s-0.8-0.5-1.2-0.8s-0.8-0.8-1-1.4s-0.3-1.2-0.3-2
		c0-1.8,0.7-3.3,2-4.3s3-1.5,5.1-1.5c1.3,0,2.5,0.3,3.6,0.8c1.2,0.5,2.1,1.2,2.8,1.9l-2.8,2.8c-1.3-1.1-2.5-1.7-3.6-1.7
		c-0.5,0-1,0.1-1.3,0.4c-0.3,0.2-0.4,0.5-0.4,0.9c0,0.6,0.4,1.1,1.2,1.5c0.2,0.1,0.8,0.3,1.8,0.8c1.1,0.4,2,1,2.6,1.7s1,1.6,1,2.9
		c0,1.8-0.7,3.3-2,4.3s-3.2,1.5-5.4,1.5c-1.4,0-2.7-0.2-3.9-0.6s-2.1-0.9-2.6-1.3L113.1,44z"/>
	<path d="M135.9,26.5l-1.1,6h4.1l-0.7,4.3h-4.1l-1.2,6.5c0,0.4-0.1,0.8-0.1,1c0,0.9,0.6,1.3,1.6,1.3c0.6,0,1.2-0.2,1.9-0.6l0.7,3.5
		c-1.4,0.8-3.1,1.2-5,1.2c-3.2,0-4.8-1.3-4.9-4c0-0.6,0.1-1.4,0.3-2.5l2.9-16.8C130.4,26.5,135.9,26.5,135.9,26.5z"/>
	<path d="M147,42.7c0.7,0.5,1.7,1,2.8,1.4s2.1,0.7,2.9,0.7c1.7,0,2.6-0.7,2.6-2c0-0.2,0-0.4-0.1-0.5s-0.2-0.3-0.3-0.5
		s-0.3-0.3-0.4-0.4s-0.3-0.2-0.6-0.4c-0.3-0.1-0.5-0.2-0.7-0.3s-0.4-0.2-0.8-0.3s-0.7-0.2-0.8-0.3c-1.4-0.5-2.4-1.2-3.2-2
		s-1.2-2.1-1.2-3.7c0-2.3,0.8-4.1,2.3-5.3s3.6-1.9,6.2-1.9c1.6,0,3.1,0.3,4.5,1s2.5,1.5,3.4,2.4l-3.3,3.5c-1.7-1.5-3.3-2.2-4.8-2.2
		s-2.3,0.6-2.3,1.7c0,0.2,0,0.3,0.1,0.4s0.1,0.3,0.1,0.4s0.1,0.2,0.2,0.3s0.2,0.2,0.3,0.3s0.2,0.2,0.4,0.3s0.3,0.2,0.4,0.2
		s0.3,0.2,0.5,0.2c0.2,0.1,0.4,0.2,0.6,0.2c0.1,0,0.3,0.1,0.6,0.3c0.3,0.1,0.5,0.2,0.7,0.3c1.4,0.6,2.5,1.3,3.4,2.1s1.2,2,1.2,3.5
		c0,2.3-0.8,4.1-2.5,5.5s-3.8,2-6.5,2c-1.7,0-3.2-0.3-4.7-0.8s-2.6-1.1-3.4-1.7L147,42.7z"/>
	<path d="M177.7,45.6l-0.2,3.5h-4.6v-1.5h-0.2c-1.2,1.4-2.7,2-4.6,2c-1.7,0-2.9-0.5-3.8-1.7s-1.3-2.6-1.3-4.4c0-3.4,0.9-6.2,2.8-8.4
		s4.4-3.2,7.8-3.2c2,0,4.1,0.4,6.3,1.3L177.7,45.6z M174.1,36.1c-0.4-0.2-0.9-0.3-1.5-0.3c-0.9,0-1.7,0.4-2.4,1.3s-1.1,1.8-1.3,2.8
		s-0.4,2-0.4,3c0,1.9,0.6,2.8,1.9,2.8c1.1,0,1.9-0.6,2.2-1.9L174.1,36.1z"/>
	<path d="M189.9,26.5l-3,16.8c-0.1,0.4-0.1,0.8-0.1,1.1c0,0.7,0.4,1.1,1.1,1.1c0.5,0,1.1-0.2,2-0.5l0.6,3.6
		c-1.3,0.8-2.9,1.2-4.8,1.2c-1.6,0-2.8-0.3-3.5-1s-1-1.7-1-3.1c0-0.6,0.1-1.4,0.2-2.3l3-16.8L189.9,26.5L189.9,26.5z"/>
	<path d="M206,33.1c0.9,0.7,1.4,1.8,1.4,3.2c0,4-3.2,6.3-9.7,6.7c0,0.8,0.2,1.4,0.6,1.9c0.5,0.5,1.1,0.8,2.1,0.8
		c1.3,0,2.7-0.5,4.2-1.4l1.1,3.5c-0.3,0.2-0.8,0.5-1.3,0.7s-1.3,0.5-2.4,0.8c-1.1,0.3-2.1,0.4-3.3,0.4c-2.3,0-4-0.6-5.1-1.8
		S192,45.1,192,43c0-2.9,0.9-5.5,2.7-7.7s4.2-3.3,7.3-3.3C203.8,32,205.1,32.3,206,33.1z M202.2,36.1c-0.2-0.2-0.5-0.3-0.8-0.3
		c-0.9,0-1.6,0.4-2.2,1.1s-1,1.7-1.2,2.7c1.1-0.1,2.1-0.3,3.1-0.8s1.4-1.1,1.4-1.9C202.6,36.5,202.4,36.3,202.2,36.1z"/>
	<path d="M208.8,44c0.6,0.4,1.4,0.8,2.3,1.2s1.7,0.5,2.4,0.5c1.2,0,1.8-0.4,1.8-1.3c0-0.1,0-0.2-0.1-0.3c0-0.1-0.1-0.2-0.2-0.3
		s-0.1-0.2-0.2-0.2s-0.2-0.1-0.3-0.2c-0.1-0.1-0.2-0.1-0.3-0.2c-0.1,0-0.2-0.1-0.4-0.2c-0.2-0.1-0.3-0.1-0.4-0.2s-0.2-0.1-0.4-0.2
		s-0.4-0.1-0.4-0.2c-0.5-0.2-1-0.4-1.4-0.6s-0.8-0.5-1.2-0.8s-0.8-0.8-1-1.4s-0.3-1.2-0.3-2c0-1.8,0.7-3.3,2-4.3s3-1.5,5.1-1.5
		c1.3,0,2.5,0.3,3.6,0.8c1.2,0.5,2.1,1.2,2.8,1.9l-2.8,2.8c-1.3-1.1-2.5-1.7-3.6-1.7c-0.5,0-1,0.1-1.3,0.4c-0.3,0.2-0.4,0.5-0.4,0.9
		c0,0.6,0.4,1.1,1.2,1.5c0.2,0.1,0.8,0.3,1.8,0.8c1.1,0.4,2,1,2.6,1.7s1,1.6,1,2.9c0,1.8-0.7,3.3-2,4.3s-3.1,1.5-5.4,1.5
		c-1.4,0-2.7-0.2-3.9-0.6s-2.1-0.9-2.6-1.3L208.8,44z"/>
</g>
<g>
	<path class="st0" d="M59.8,22c0.2,0.1,0.5,0.2,0.7,0.4c1.9,1,3.1,3.2,2.7,5.3c-0.2,1.1-0.4,2.3-0.6,3.4c-0.9,5-1.9,10.1-2.9,15.1
		c-0.1,0.3,0,0.6,0.1,0.8c0.3,0.9,0.5,1.8,0.3,2.7c-0.4,1.9-0.7,3.8-1.2,5.7c-1.2,4.1-3.7,7.3-7.4,9.6c-4.1,2.5-8.5,3.2-13.2,2
		c-7.5-1.9-12.7-8.6-12.8-16.3c0-1,0.1-2.1,0.3-3.1c0.7-3.9,1.5-7.8,2.2-11.8c0.5-2.2,2.8-4,5.1-3.9c1.8,0,3.3,0.9,4.3,2.4
		c1.2-0.8,2.6-1.2,4-0.9s2.6,1.1,3.4,2.3c2.1-1.3,4.2-1.3,6.3,0.1c0-0.2,0.1-0.4,0.1-0.5c0.6-3.2,1.2-6.3,1.8-9.5c0.5-2.3,2.6-4,5-4
		c0.1,0,0.2,0,0.3,0C58.8,21.8,59.3,21.9,59.8,22z M28.4,48.7c0,0.8-0.1,1.4-0.1,2.1c0.2,6.6,4.7,12.1,11.1,13.6
		c3.8,0.9,7.4,0.2,10.7-1.8c3-1.9,5.1-4.6,6.1-8.1c0.5-1.7,0.8-3.4,1.1-5.1c0.2-1.2-0.6-2.4-1.8-2.6c-5.3-1-10.7-2-16-3
		c-1-0.2-1.8,0.2-2.3,1s-0.5,1.8,0,2.6c0.4,0.6,1,0.9,1.8,1c3.9,0.7,7.8,1.5,11.6,2.2c0.2,0,0.5,0.1,0.7,0.2
		c0.6,0.3,0.9,1.1,0.6,1.7c-0.3,0.7-0.9,1-1.7,0.9c-4.1-0.8-8.2-1.5-12.3-2.3c-0.9-0.2-1.7-0.6-2.3-1.2c-0.3-0.3-0.6-0.7-0.9-1
		C32.6,50.1,30.5,50.1,28.4,48.7z M57.2,44.2c0-0.1,0-0.2,0.1-0.4c0.3-1.7,0.7-3.5,1-5.2c0.7-3.7,1.4-7.4,2.1-11.1
		c0.3-1.5-0.9-2.9-2.5-2.8c-1.1,0-2,0.9-2.2,2c-1,5.4-2,10.8-3.1,16.1c0,0.1,0,0.3-0.1,0.5C54.2,43.6,55.7,43.9,57.2,44.2z
		 M34.6,41.3c0.2-1.2,0.5-2.5,0.7-3.7c0.2-1.3-0.6-2.6-1.9-2.8c-1.3-0.2-2.5,0.6-2.8,1.9c-0.5,2.4-0.9,4.9-1.4,7.3
		c-0.2,1.3,0.5,2.6,1.8,2.8c1.3,0.3,2.5-0.6,2.8-2C34.2,43.7,34.4,42.5,34.6,41.3z M42.3,41.3c0.2-0.8,0.3-1.7,0.5-2.5
		c0.2-1.2-0.6-2.2-1.8-2.5c-1-0.3-2.4,0.3-2.7,1.3c-0.3,1.1-0.5,2.2-0.7,3.4C39.3,40.5,40.8,41,42.3,41.3z M49.8,42.7
		c0.2-0.8,0.4-1.6,0.5-2.4c0.1-1.3-0.6-2.3-1.8-2.6c-1-0.3-2.3,0.3-2.7,1.3c-0.3,0.9-0.4,1.9-0.6,2.8C46.7,42.1,48.3,42.4,49.8,42.7
		z"/>
</g>
<g>
	<path d="M73.2,61.1c0.4-0.5,0.8-0.9,1.4-1.2c0.5-0.3,1.1-0.4,1.8-0.4c0.6,0,1.1,0.1,1.5,0.4s0.7,0.6,0.8,1l0.2-1.3H80l-1.2,6.9
		h-1.2l0.2-1.3c-0.3,0.4-0.7,0.7-1.2,1c-0.5,0.3-1,0.4-1.6,0.4c-0.5,0-1-0.1-1.4-0.3c-0.4-0.2-0.7-0.6-1-1c-0.2-0.4-0.3-0.9-0.3-1.5
		c0-0.3,0-0.5,0.1-0.8C72.5,62.3,72.8,61.7,73.2,61.1z M78.3,62.4c0-0.6-0.2-1.1-0.5-1.5s-0.8-0.5-1.4-0.5c-0.4,0-0.8,0.1-1.2,0.3
		c-0.4,0.2-0.7,0.5-1,0.9c-0.3,0.4-0.5,0.8-0.6,1.4c0,0.2-0.1,0.4-0.1,0.6c0,0.6,0.2,1.1,0.5,1.5s0.8,0.5,1.4,0.5
		c0.4,0,0.8-0.1,1.2-0.3c0.4-0.2,0.7-0.5,1-0.9c0.3-0.4,0.5-0.8,0.6-1.4C78.3,62.8,78.3,62.6,78.3,62.4z"/>
	<path d="M87.8,59.9c0.5-0.3,1-0.4,1.6-0.4c0.5,0,1,0.1,1.4,0.3c0.4,0.2,0.7,0.5,1,1c0.2,0.4,0.3,0.9,0.3,1.5c0,0.2,0,0.5-0.1,0.8
		c-0.1,0.7-0.4,1.3-0.8,1.9c-0.4,0.5-0.8,1-1.4,1.3c-0.5,0.3-1.1,0.5-1.7,0.5c-0.6,0-1.1-0.1-1.5-0.4c-0.4-0.3-0.7-0.6-0.9-1
		l-0.8,4.5h-1.1l1.8-10.2h1.1l-0.2,1.3C86.9,60.5,87.3,60.1,87.8,59.9z M91,62.4c0-0.6-0.2-1.1-0.5-1.4c-0.4-0.3-0.8-0.5-1.4-0.5
		c-0.4,0-0.8,0.1-1.2,0.3c-0.4,0.2-0.7,0.5-1,0.9s-0.5,0.8-0.6,1.4c0,0.2-0.1,0.4-0.1,0.6c0,0.6,0.2,1.1,0.5,1.5s0.8,0.5,1.4,0.5
		c0.4,0,0.8-0.1,1.2-0.3c0.4-0.2,0.7-0.5,1-0.9c0.3-0.4,0.5-0.8,0.6-1.4C91,62.8,91,62.6,91,62.4z"/>
	<path d="M96.2,59.8c0.4-0.3,0.9-0.4,1.4-0.4l-0.2,1.2h-0.3c-0.6,0-1.1,0.2-1.5,0.5c-0.4,0.3-0.7,0.9-0.8,1.6l-0.7,3.7H93l1.2-6.9
		h1.1l-0.2,1.3C95.4,60.4,95.8,60.1,96.2,59.8z"/>
	<path d="M99.2,66.2c-0.4-0.2-0.8-0.6-1-1c-0.2-0.4-0.4-0.9-0.4-1.5c0-0.8,0.2-1.5,0.5-2.1c0.4-0.7,0.9-1.2,1.5-1.5
		c0.6-0.4,1.3-0.6,2.1-0.6c0.6,0,1.1,0.1,1.5,0.4c0.4,0.2,0.8,0.6,1,1c0.2,0.4,0.4,0.9,0.4,1.5c0,0.8-0.2,1.5-0.6,2.1
		c-0.4,0.6-0.9,1.2-1.5,1.5c-0.6,0.4-1.3,0.6-2.1,0.6C100.1,66.6,99.6,66.5,99.2,66.2z M102.3,65.2c0.4-0.3,0.8-0.7,1-1.2
		c0.2-0.5,0.4-1,0.4-1.6c0-0.6-0.2-1.1-0.6-1.5c-0.4-0.3-0.8-0.5-1.4-0.5c-0.5,0-1,0.1-1.5,0.4c-0.4,0.3-0.8,0.7-1,1.2
		c-0.2,0.5-0.4,1-0.4,1.6c0,0.6,0.2,1.1,0.5,1.4c0.4,0.3,0.8,0.5,1.3,0.5C101.4,65.6,101.9,65.5,102.3,65.2z"/>
	<path d="M106.7,61.1c0.4-0.5,0.8-0.9,1.4-1.2c0.6-0.3,1.1-0.4,1.8-0.4c0.5,0,1,0.1,1.4,0.4c0.4,0.2,0.7,0.6,0.9,1l0.6-3.6h1.2
		l-1.6,9.3h-1.2l0.2-1.3c-0.3,0.4-0.7,0.7-1.2,1c-0.5,0.3-1,0.4-1.6,0.4c-0.5,0-1-0.1-1.4-0.3c-0.4-0.2-0.7-0.6-1-1
		s-0.3-0.9-0.3-1.5c0-0.3,0-0.5,0.1-0.8C106,62.3,106.3,61.7,106.7,61.1z M111.8,62.4c0-0.6-0.2-1.1-0.5-1.5s-0.8-0.5-1.4-0.5
		c-0.4,0-0.8,0.1-1.2,0.3c-0.4,0.2-0.7,0.5-1,0.9c-0.3,0.4-0.5,0.8-0.6,1.4c0,0.2-0.1,0.4-0.1,0.6c0,0.6,0.2,1.1,0.5,1.5
		s0.8,0.5,1.4,0.5c0.4,0,0.8-0.1,1.2-0.3c0.4-0.2,0.7-0.5,1-0.9c0.3-0.4,0.5-0.8,0.6-1.4C111.8,62.8,111.8,62.6,111.8,62.4z"/>
	<path d="M121.6,59.6l-1.2,6.9h-1.1l0.2-1c-0.3,0.4-0.6,0.6-1.1,0.8c-0.4,0.2-0.9,0.3-1.3,0.3c-0.7,0-1.3-0.2-1.7-0.6
		c-0.4-0.4-0.6-0.9-0.6-1.7c0-0.2,0-0.4,0.1-0.7l0.7-4h1.1l-0.7,3.9c0,0.2-0.1,0.4-0.1,0.6c0,0.5,0.1,0.9,0.4,1.2
		c0.3,0.3,0.7,0.4,1.2,0.4c0.6,0,1.1-0.2,1.5-0.6s0.7-0.9,0.8-1.6v0l0.7-3.8H121.6z"/>
	<path d="M123.2,61.1c0.4-0.5,0.9-0.9,1.4-1.2c0.6-0.3,1.2-0.4,1.8-0.4c0.8,0,1.5,0.2,2,0.6c0.5,0.4,0.7,1,0.8,1.7H128
		c0-0.4-0.2-0.8-0.5-1s-0.7-0.4-1.2-0.4c-0.7,0-1.2,0.2-1.7,0.7c-0.5,0.4-0.8,1.1-0.9,1.9c0,0.3-0.1,0.5-0.1,0.7
		c0,0.6,0.2,1.1,0.5,1.4c0.3,0.3,0.8,0.5,1.3,0.5c0.5,0,0.9-0.1,1.3-0.4c0.4-0.2,0.7-0.6,0.9-1h1.2c-0.3,0.7-0.8,1.3-1.4,1.7
		c-0.6,0.4-1.4,0.6-2.2,0.6c-0.9,0-1.5-0.2-2.1-0.7c-0.5-0.5-0.8-1.2-0.8-2c0-0.3,0-0.5,0.1-0.8C122.6,62.3,122.8,61.7,123.2,61.1z"
		/>
	<path d="M131.7,64.6c0,0.1,0,0.2,0,0.3c0,0.2,0.1,0.4,0.2,0.5c0.1,0.1,0.3,0.1,0.6,0.1h0.8l-0.2,1h-1c-0.5,0-1-0.1-1.2-0.3
		c-0.3-0.2-0.4-0.6-0.4-1c0-0.2,0-0.4,0-0.5l0.7-4.1h-0.9l0.2-0.9h0.9l0.3-1.7h1.2l-0.3,1.7h1.8l-0.2,0.9h-1.8L131.7,64.6z"/>
	<path d="M141.6,59.9c0.5-0.3,1-0.4,1.6-0.4c0.8,0,1.5,0.2,2,0.7c0.5,0.5,0.7,1.2,0.7,2c0,0.2,0,0.5-0.1,0.8
		c-0.1,0.7-0.4,1.3-0.8,1.9c-0.4,0.5-0.8,1-1.4,1.3c-0.5,0.3-1.1,0.5-1.7,0.5c-0.6,0-1.1-0.1-1.5-0.4c-0.4-0.3-0.7-0.6-0.8-1
		l-0.2,1.3h-1.1l1.6-9.3h1.1l-0.7,3.7C140.7,60.4,141.1,60.1,141.6,59.9z M144.7,62.4c0-0.6-0.2-1.1-0.5-1.4
		c-0.4-0.3-0.8-0.5-1.4-0.5c-0.4,0-0.8,0.1-1.2,0.3c-0.4,0.2-0.7,0.5-1,0.9s-0.5,0.8-0.6,1.4c0,0.2-0.1,0.4-0.1,0.6
		c0,0.6,0.2,1.1,0.5,1.5c0.4,0.4,0.8,0.5,1.4,0.5c0.4,0,0.8-0.1,1.2-0.3c0.4-0.2,0.7-0.5,1-0.9c0.3-0.4,0.5-0.8,0.6-1.4
		C144.7,62.8,144.7,62.6,144.7,62.4z"/>
	<path d="M148.4,59.6l1.2,5.6l3.1-5.6h1.2L148,69.7h-1.2l1.9-3.3l-1.6-6.8H148.4z"/>
	<path d="M158.9,65.6h3.1l-0.2,0.9h-4.2l1.6-8.8h1.1L158.9,65.6z"/>
	<path d="M165.4,59.6l-1.2,6.9H163l1.2-6.9H165.4z M164.5,58.3c-0.1-0.1-0.2-0.3-0.2-0.5c0-0.3,0.1-0.5,0.3-0.6
		c0.2-0.2,0.4-0.3,0.6-0.3c0.2,0,0.3,0.1,0.5,0.2c0.1,0.1,0.2,0.3,0.2,0.5c0,0.3-0.1,0.5-0.3,0.6c-0.2,0.2-0.4,0.3-0.6,0.3
		C164.8,58.5,164.7,58.4,164.5,58.3z"/>
	<path d="M167.8,64.6c0,0.1,0,0.2,0,0.3c0,0.2,0.1,0.4,0.2,0.5c0.1,0.1,0.3,0.1,0.6,0.1h0.8l-0.2,1h-1c-0.5,0-1-0.1-1.2-0.3
		c-0.3-0.2-0.4-0.6-0.4-1c0-0.2,0-0.4,0-0.5l0.7-4.1h-0.9l0.2-0.9h0.9l0.3-1.7h1.2l-0.3,1.7h1.8l-0.2,0.9h-1.8L167.8,64.6z"/>
	<path d="M172.4,64.6c0,0.1,0,0.2,0,0.3c0,0.2,0.1,0.4,0.2,0.5c0.1,0.1,0.3,0.1,0.6,0.1h0.8l-0.2,1h-1c-0.5,0-1-0.1-1.2-0.3
		c-0.3-0.2-0.4-0.6-0.4-1c0-0.2,0-0.4,0-0.5l0.7-4.1h-0.9l0.2-0.9h0.9l0.3-1.7h1.2l-0.3,1.7h1.8l-0.2,0.9h-1.8L172.4,64.6z"/>
	<path d="M178,57.2l-1.6,9.3h-1.1l1.6-9.3H178z"/>
	<path d="M184.1,59.8c0.4,0.2,0.7,0.5,1,0.9c0.2,0.4,0.3,0.9,0.3,1.4c0,0.2,0,0.4-0.1,0.6c0,0.2-0.1,0.4-0.2,0.7h-5.5
		c0,0.2,0,0.3,0,0.4c0,0.6,0.2,1,0.5,1.4c0.3,0.3,0.8,0.5,1.4,0.5c0.5,0,0.9-0.1,1.3-0.3c0.4-0.2,0.7-0.5,0.8-0.9h1.2
		c-0.3,0.7-0.8,1.2-1.4,1.6c-0.6,0.4-1.3,0.6-2.2,0.6c-0.9,0-1.6-0.2-2.1-0.7c-0.5-0.5-0.8-1.2-0.8-2c0-0.2,0-0.5,0.1-0.8
		c0.1-0.7,0.4-1.3,0.8-1.9c0.4-0.5,0.9-0.9,1.4-1.2c0.6-0.3,1.2-0.4,1.8-0.4C183.1,59.5,183.6,59.6,184.1,59.8z M184.2,62.1
		c0-0.5-0.2-1-0.5-1.2s-0.8-0.4-1.3-0.4c-0.6,0-1.1,0.2-1.6,0.6c-0.5,0.4-0.8,0.9-1,1.6h4.4C184.2,62.4,184.2,62.3,184.2,62.1z"/>
	<path d="M190.9,66c-0.5-0.4-0.8-0.9-0.8-1.6c0-0.1,0-0.2,0-0.3h1.1c0,0.4,0.1,0.8,0.4,1.1c0.3,0.3,0.7,0.4,1.3,0.4
		c0.6,0,1-0.1,1.4-0.4c0.3-0.3,0.5-0.6,0.5-1.1c0-0.3-0.1-0.5-0.2-0.7c-0.2-0.2-0.4-0.4-0.6-0.5c-0.2-0.1-0.6-0.3-1-0.4
		c-0.5-0.2-0.9-0.4-1.2-0.6c-0.3-0.2-0.6-0.4-0.8-0.7c-0.2-0.3-0.3-0.7-0.3-1.1c0-0.5,0.1-0.9,0.4-1.3s0.6-0.7,1.1-0.9
		s1-0.3,1.6-0.3c0.6,0,1.1,0.1,1.5,0.3c0.4,0.2,0.7,0.5,0.9,0.8c0.2,0.3,0.3,0.7,0.3,1.2h-1.2c0-0.2,0-0.4-0.1-0.6
		c-0.1-0.2-0.3-0.4-0.5-0.5c-0.2-0.1-0.5-0.2-0.9-0.2c-0.5,0-1,0.1-1.3,0.4c-0.3,0.3-0.5,0.6-0.5,1.1c0,0.3,0.1,0.5,0.2,0.7
		c0.2,0.2,0.4,0.3,0.6,0.5s0.6,0.3,1,0.5c0.5,0.2,0.9,0.4,1.2,0.6s0.6,0.4,0.8,0.7c0.2,0.3,0.3,0.7,0.3,1.1c0,0.5-0.1,0.9-0.4,1.3
		c-0.3,0.4-0.6,0.7-1.1,0.9c-0.5,0.2-1,0.3-1.6,0.3C192.1,66.6,191.4,66.4,190.9,66z"/>
	<path d="M198.2,61.1c0.4-0.5,0.8-0.9,1.4-1.2c0.5-0.3,1.1-0.4,1.8-0.4c0.6,0,1.1,0.1,1.5,0.4s0.7,0.6,0.8,1l0.2-1.3h1.2l-1.2,6.9
		h-1.2l0.2-1.3c-0.3,0.4-0.7,0.7-1.2,1c-0.5,0.3-1,0.4-1.6,0.4c-0.5,0-1-0.1-1.4-0.3c-0.4-0.2-0.7-0.6-1-1c-0.2-0.4-0.3-0.9-0.3-1.5
		c0-0.3,0-0.5,0.1-0.8C197.5,62.3,197.8,61.7,198.2,61.1z M203.3,62.4c0-0.6-0.2-1.1-0.5-1.5c-0.4-0.4-0.8-0.5-1.4-0.5
		c-0.4,0-0.8,0.1-1.2,0.3c-0.4,0.2-0.7,0.5-1,0.9c-0.3,0.4-0.5,0.8-0.6,1.4c0,0.2-0.1,0.4-0.1,0.6c0,0.6,0.2,1.1,0.5,1.5
		s0.8,0.5,1.4,0.5c0.4,0,0.8-0.1,1.2-0.3c0.4-0.2,0.7-0.5,1-0.9c0.3-0.4,0.5-0.8,0.6-1.4C203.3,62.8,203.3,62.6,203.3,62.4z"/>
	<path d="M206.7,61.1c0.4-0.5,0.8-0.9,1.4-1.2c0.5-0.3,1.1-0.4,1.8-0.4c0.6,0,1.1,0.1,1.5,0.4s0.7,0.6,0.8,1l0.2-1.3h1.2l-1.2,6.9
		h-1.2l0.2-1.3c-0.3,0.4-0.7,0.7-1.2,1c-0.5,0.3-1,0.4-1.6,0.4c-0.5,0-1-0.1-1.4-0.3c-0.4-0.2-0.7-0.6-1-1c-0.2-0.4-0.3-0.9-0.3-1.5
		c0-0.3,0-0.5,0.1-0.8C206,62.3,206.3,61.7,206.7,61.1z M211.8,62.4c0-0.6-0.2-1.1-0.5-1.5c-0.4-0.4-0.8-0.5-1.4-0.5
		c-0.4,0-0.8,0.1-1.2,0.3c-0.4,0.2-0.7,0.5-1,0.9c-0.3,0.4-0.5,0.8-0.6,1.4c0,0.2-0.1,0.4-0.1,0.6c0,0.6,0.2,1.1,0.5,1.5
		s0.8,0.5,1.4,0.5c0.4,0,0.8-0.1,1.2-0.3c0.4-0.2,0.7-0.5,1-0.9c0.3-0.4,0.5-0.8,0.6-1.4C211.8,62.8,211.8,62.6,211.8,62.4z"/>
	<path d="M215.2,66c-0.5-0.4-0.8-0.9-0.8-1.6c0-0.1,0-0.2,0-0.3h1.1c0,0.4,0.1,0.8,0.4,1.1c0.3,0.3,0.7,0.4,1.3,0.4
		c0.6,0,1-0.1,1.4-0.4c0.3-0.3,0.5-0.6,0.5-1.1c0-0.3-0.1-0.5-0.2-0.7c-0.2-0.2-0.4-0.4-0.6-0.5c-0.2-0.1-0.6-0.3-1-0.4
		c-0.5-0.2-0.9-0.4-1.2-0.6c-0.3-0.2-0.6-0.4-0.8-0.7c-0.2-0.3-0.3-0.7-0.3-1.1c0-0.5,0.1-0.9,0.4-1.3s0.6-0.7,1.1-0.9
		s1-0.3,1.6-0.3c0.6,0,1.1,0.1,1.5,0.3c0.4,0.2,0.7,0.5,0.9,0.8c0.2,0.3,0.3,0.7,0.3,1.2h-1.2c0-0.2,0-0.4-0.1-0.6
		c-0.1-0.2-0.3-0.4-0.5-0.5c-0.2-0.1-0.5-0.2-0.9-0.2c-0.5,0-1,0.1-1.3,0.4c-0.3,0.3-0.5,0.6-0.5,1.1c0,0.3,0.1,0.5,0.2,0.7
		c0.2,0.2,0.4,0.3,0.6,0.5s0.6,0.3,1,0.5c0.5,0.2,0.9,0.4,1.2,0.6s0.6,0.4,0.8,0.7c0.2,0.3,0.3,0.7,0.3,1.1c0,0.5-0.1,0.9-0.4,1.3
		c-0.3,0.4-0.6,0.7-1.1,0.9c-0.5,0.2-1,0.3-1.6,0.3C216.4,66.6,215.7,66.4,215.2,66z"/>
</g>
</svg>
